<svg width="24" height="24" viewBox="0 0 24 24" fill="none" xmlns="http://www.w3.org/2000/svg">
<path d="M14.001 19.9123H21.0039" stroke="#323232" stroke-width="1.5" stroke-linecap="round" stroke-linejoin="round"/>
<path d="M7.99856 16.752L6.11978 18.6277L4.99731 17.5023" stroke="#323232" stroke-width="1.5" stroke-linecap="round" stroke-linejoin="round"/>
<circle cx="6.49772" cy="17.5019" r="4.50187" stroke="#323232" stroke-width="1.5" stroke-linecap="round" stroke-linejoin="round"/>
<path d="M19.7834 9.77734V19.9116" stroke="#323232" stroke-width="1.5" stroke-linecap="round" stroke-linejoin="round"/>
<path d="M13.0005 13H16.0017V16.0013H14.0009" stroke="#323232" stroke-width="1.5" stroke-linecap="round" stroke-linejoin="round"/>
<path d="M4.24994 9.77538V9.77538C3.46727 9.77538 2.74079 9.36881 2.33144 8.70173C1.92209 8.03465 1.88864 7.20282 2.2431 6.50502L3.97882 3.0886C4.32002 2.41713 5.00938 1.99414 5.76257 1.99414H18.2378C18.9909 1.99414 19.6803 2.41713 20.0215 3.0886L21.7572 6.50502C22.1117 7.20282 22.0782 8.03465 21.6689 8.70173C21.2595 9.36881 20.5331 9.77538 19.7504 9.77538V9.77538" stroke="#323232" stroke-width="1.5" stroke-linecap="round" stroke-linejoin="round"/>
<path d="M14.5833 9.77634C16.0087 9.77689 17.1651 8.62269 17.1673 7.19727C17.1673 7.88234 17.4395 8.53936 17.9239 9.02378C18.4083 9.5082 19.0653 9.78034 19.7504 9.78034" stroke="#323232" stroke-width="1.5" stroke-linecap="round" stroke-linejoin="round"/>
<path d="M9.41602 9.77634C10.8414 9.77689 11.9979 8.62269 12.0001 7.19727C12.0001 8.62386 13.1566 9.78034 14.5832 9.78034" stroke="#323232" stroke-width="1.5" stroke-linecap="round" stroke-linejoin="round"/>
<path d="M4.24878 9.77634C5.6742 9.77689 6.83065 8.62269 6.83286 7.19727C6.83506 8.6223 7.9909 9.77634 9.41593 9.77634" stroke="#323232" stroke-width="1.5" stroke-linecap="round" stroke-linejoin="round"/>
</svg>
