<svg width="24" height="24" viewBox="0 0 24 24" fill="none" xmlns="http://www.w3.org/2000/svg">
<path d="M20.64 14.4004H19.4323L18.4713 19.2004H13.6281L12.96 15.8404H19.1443" stroke="white" stroke-width="1.5" stroke-linecap="round" stroke-linejoin="round"/>
<path d="M19.68 10.5598V5.75984C19.68 4.69946 18.8204 3.83984 17.76 3.83984H5.27999C4.2196 3.83984 3.35999 4.69946 3.35999 5.75984V19.1998C3.35999 20.2602 4.2196 21.1198 5.27999 21.1198H10.08" stroke="white" stroke-width="1.5" stroke-linecap="round" stroke-linejoin="round"/>
<path d="M7.19995 7.67922H15.84" stroke="white" stroke-width="1.5" stroke-linecap="round" stroke-linejoin="round"/>
<path d="M7.19995 11.521H13.92" stroke="white" stroke-width="1.5" stroke-linecap="round" stroke-linejoin="round"/>
<path d="M7.19995 15.3609H9.11995" stroke="white" stroke-width="1.5" stroke-linecap="round" stroke-linejoin="round"/>
<path d="M14.0851 21.5185C14.0664 21.5373 14.0665 21.5676 14.0853 21.5863C14.104 21.605 14.1344 21.6049 14.1531 21.5862C14.1718 21.5675 14.1719 21.5372 14.1532 21.5184C14.1345 21.4996 14.1042 21.4995 14.0854 21.5182L14.0851 21.5185" stroke="white" stroke-width="1.5" stroke-linecap="round" stroke-linejoin="round"/>
<path d="M17.952 21.5185C17.9334 21.5373 17.9335 21.5676 17.9522 21.5863C17.971 21.605 18.0013 21.6049 18.02 21.5862C18.0388 21.5675 18.0388 21.5372 18.0201 21.5184C18.0014 21.4996 17.9711 21.4995 17.9523 21.5182L17.952 21.5185" stroke="white" stroke-width="1.5" stroke-linecap="round" stroke-linejoin="round"/>
</svg>
