<svg width="24" height="24" viewBox="0 0 24 24" fill="none" xmlns="http://www.w3.org/2000/svg">
<path d="M12.3691 13.3203H14.7116C15.3 13.3203 15.8644 13.5541 16.2805 13.9702C16.6966 14.3863 16.9304 14.9506 16.9304 15.539V18.3843C16.9304 19.2637 16.2175 19.9765 15.3382 19.9765H14.4641" stroke="#323232" stroke-width="1.5" stroke-linecap="round" stroke-linejoin="round"/>
<path d="M7.52948 20.2333C8.5664 20.2333 9.58019 20.1293 10.562 20.0225M3.65008 19.9053C3.20904 19.7628 2.87797 19.3734 2.82199 18.8994C2.69437 17.8186 2.5481 16.6934 2.5481 15.5375C2.5481 14.3817 2.69437 13.2564 2.82199 12.1757C2.88778 11.6186 3.33356 11.1782 3.89129 11.1184C5.05989 10.9931 6.27785 10.8418 7.52948 10.8418C8.78111 10.8418 9.99909 10.9931 11.1677 11.1184C11.7254 11.1782 12.1712 11.6186 12.237 12.1757C12.3646 13.2564 12.5109 14.3817 12.5109 15.5375C12.5109 16.4753 12.4146 17.3929 12.3101 18.2831" stroke="#323232" stroke-width="1.5" stroke-linecap="round" stroke-linejoin="round"/>
<path d="M5.57934 22.1944C6.83464 22.1944 7.54075 21.4882 7.54075 20.2328C7.54075 18.9776 6.83464 18.2715 5.57934 18.2715C4.32404 18.2715 3.61792 18.9776 3.61792 20.2328C3.61792 21.4882 4.32404 22.1944 5.57934 22.1944Z" stroke="#323232" stroke-width="1.5" stroke-linecap="round" stroke-linejoin="round"/>
<path d="M12.5107 22.1944C13.766 22.1944 14.4721 21.4882 14.4721 20.2328C14.4721 18.9776 13.766 18.2715 12.5107 18.2715C11.2554 18.2715 10.5493 18.9776 10.5493 20.2328C10.5493 21.4882 11.2554 22.1944 12.5107 22.1944Z" stroke="#323232" stroke-width="1.5" stroke-linecap="round" stroke-linejoin="round"/>
<path d="M15.335 8.04426L16.7933 6.58594" stroke="#323232" stroke-width="1.5" stroke-linecap="round" stroke-linejoin="round"/>
<path d="M19.302 12.6157C20.4534 11.635 21.0659 10.104 21.0659 8.09647C21.0659 4.39598 18.9845 2.31445 15.284 2.31445C11.9075 2.31445 9.87893 4.04741 9.54956 7.16196" stroke="#323232" stroke-width="1.5" stroke-linecap="round" stroke-linejoin="round"/>
</svg>
