<svg width="24" height="24" viewBox="0 0 24 24" fill="none" xmlns="http://www.w3.org/2000/svg">
<path d="M14.001 19.9123H21.0039" stroke="#323232" stroke-width="1.5" stroke-linecap="round" stroke-linejoin="round"/>
<path d="M19.7834 9.77734V19.9116" stroke="#323232" stroke-width="1.5" stroke-linecap="round" stroke-linejoin="round"/>
<path d="M13.0005 13H16.0017V16.0013H14.0009" stroke="#323232" stroke-width="1.5" stroke-linecap="round" stroke-linejoin="round"/>
<path fill-rule="evenodd" clip-rule="evenodd" d="M4.29691 9.77554C3.52829 9.80371 2.80072 9.4286 2.37786 8.78613C1.955 8.14366 1.8982 7.32706 2.22805 6.63224L3.94477 3.25383C4.35744 2.47031 5.17416 1.98391 6.05965 1.9943H17.9406C18.8263 1.98422 19.6431 2.47048 20.0565 3.25383L21.7732 6.63224C22.1031 7.32722 22.0462 8.14404 21.6231 8.78658C21.2 9.42911 20.4721 9.80408 19.7033 9.77554C18.4 9.87736 17.2565 8.91345 17.1363 7.61164V7.56362C17.0308 8.87959 15.8863 9.8658 14.5692 9.77554C13.2513 9.86695 12.1055 8.88042 12.0001 7.56362C11.8947 8.87959 10.7501 9.8658 9.43305 9.77554C8.11596 9.8658 6.9714 8.87959 6.86598 7.56362V7.61164C6.74476 8.91376 5.60068 9.8774 4.29691 9.77554Z" stroke="#323232" stroke-width="1.5" stroke-linecap="round" stroke-linejoin="round"/>
<path d="M6.49772 13C8.98404 13 10.9996 15.0156 10.9996 17.5019C10.9996 19.9882 8.98404 22.0037 6.49772 22.0037C4.01141 22.0037 1.99585 19.9882 1.99585 17.5019C1.99585 15.0156 4.01141 13 6.49772 13" stroke="#323232" stroke-width="1.5" stroke-linecap="round" stroke-linejoin="round"/>
<path d="M7.72042 17.4521C7.6928 17.4521 7.6704 17.4745 7.6704 17.5022C7.6704 17.5298 7.6928 17.5522 7.72042 17.5522C7.74805 17.5522 7.77044 17.5298 7.77044 17.5022C7.77044 17.4745 7.74805 17.4521 7.72042 17.4521" stroke="#323232" stroke-width="1.5" stroke-linecap="round" stroke-linejoin="round"/>
<path d="M5.27435 17.4512C5.24728 17.4512 5.22533 17.4731 5.22533 17.5002V17.5002C5.22533 17.5204 5.23752 17.5387 5.25621 17.5464C5.2749 17.5542 5.29642 17.5499 5.31072 17.5356C5.32503 17.5213 5.32931 17.4998 5.32157 17.4811C5.31383 17.4624 5.29559 17.4502 5.27535 17.4502" stroke="#323232" stroke-width="1.5" stroke-linecap="round" stroke-linejoin="round"/>
</svg>
