<svg width="25" height="24" viewBox="0 0 25 24" fill="none" xmlns="http://www.w3.org/2000/svg">
<path fill-rule="evenodd" clip-rule="evenodd" d="M4.78287 12H13.7866C14.1276 11.9997 14.4547 12.1349 14.6959 12.3758C14.9372 12.6167 15.0729 12.9436 15.0732 13.2845V19.7182C15.0732 20.4282 14.4976 21.0038 13.7876 21.0038H4.78287C4.07234 21.0038 3.49634 20.4277 3.49634 19.7172V13.2855C3.49689 12.5754 4.07273 12 4.78287 12Z" stroke="#323232" stroke-width="1.5" stroke-linecap="round" stroke-linejoin="round"/>
<path d="M7.03394 15C7.03394 16.2432 8.04171 17.2509 9.28487 17.2509C10.528 17.2509 11.5358 16.2432 11.5358 15" stroke="#323232" stroke-width="1.5" stroke-linecap="round" stroke-linejoin="round"/>
<path d="M3.49634 8.99859V4.99693C3.49634 3.8919 4.39214 2.99609 5.49717 2.99609H11.4997" stroke="#323232" stroke-width="1.5" stroke-linecap="round" stroke-linejoin="round"/>
<path d="M21.5039 13V19.0025C21.5039 20.1075 20.6081 21.0033 19.503 21.0033H17.5022" stroke="#323232" stroke-width="1.5" stroke-linecap="round" stroke-linejoin="round"/>
<circle cx="18.5026" cy="5.99581" r="4.00167" stroke="#323232" stroke-width="1.5" stroke-linecap="round" stroke-linejoin="round"/>
<path d="M19.8365 5.33008L18.17 6.9974L17.1687 5.99699" stroke="#323232" stroke-width="1.5" stroke-linecap="round" stroke-linejoin="round"/>
</svg>
